<mxfile host="app.diagrams.net" modified="2020-08-28T07:11:36.089Z" agent="5.0 (Windows NT 10.0; Win64; x64) AppleWebKit/537.36 (KHTML, like Gecko) Chrome/84.0.4147.105 Safari/537.36" etag="p16PTuM2moib98KUc-sC" version="13.6.5" type="github">
  <diagram id="Yy1lHZB_Bil_hXvj6CWL" name="Page-1">
    <mxGraphModel dx="1865" dy="579" grid="1" gridSize="10" guides="1" tooltips="1" connect="1" arrows="1" fold="1" page="1" pageScale="1" pageWidth="827" pageHeight="1169" math="0" shadow="0">
      <root>
        <mxCell id="0" />
        <mxCell id="1" parent="0" />
        <mxCell id="0brkee-HvgIIuJ729QaQ-3" value="" style="edgeStyle=orthogonalEdgeStyle;rounded=0;orthogonalLoop=1;jettySize=auto;html=1;" edge="1" parent="1" source="0brkee-HvgIIuJ729QaQ-1" target="0brkee-HvgIIuJ729QaQ-2">
          <mxGeometry relative="1" as="geometry" />
        </mxCell>
        <mxCell id="0brkee-HvgIIuJ729QaQ-1" value="OC" style="rounded=1;whiteSpace=wrap;html=1;" vertex="1" parent="1">
          <mxGeometry x="120" y="80" width="60" height="30" as="geometry" />
        </mxCell>
        <mxCell id="0brkee-HvgIIuJ729QaQ-5" value="回源拉m3u8.v1" style="edgeStyle=orthogonalEdgeStyle;rounded=0;orthogonalLoop=1;jettySize=auto;html=1;" edge="1" parent="1" source="0brkee-HvgIIuJ729QaQ-2" target="0brkee-HvgIIuJ729QaQ-4">
          <mxGeometry relative="1" as="geometry" />
        </mxCell>
        <mxCell id="0brkee-HvgIIuJ729QaQ-17" value="" style="edgeStyle=orthogonalEdgeStyle;rounded=0;orthogonalLoop=1;jettySize=auto;html=1;" edge="1" parent="1" source="0brkee-HvgIIuJ729QaQ-2" target="0brkee-HvgIIuJ729QaQ-16">
          <mxGeometry relative="1" as="geometry" />
        </mxCell>
        <mxCell id="0brkee-HvgIIuJ729QaQ-20" value="拉m3u8.v2" style="edgeLabel;html=1;align=center;verticalAlign=middle;resizable=0;points=[];" vertex="1" connectable="0" parent="0brkee-HvgIIuJ729QaQ-17">
          <mxGeometry x="-0.1653" relative="1" as="geometry">
            <mxPoint as="offset" />
          </mxGeometry>
        </mxCell>
        <mxCell id="0brkee-HvgIIuJ729QaQ-2" value="回源层" style="rounded=1;whiteSpace=wrap;html=1;" vertex="1" parent="1">
          <mxGeometry x="120" y="150" width="60" height="30" as="geometry" />
        </mxCell>
        <mxCell id="0brkee-HvgIIuJ729QaQ-10" value="云函数" style="edgeStyle=orthogonalEdgeStyle;rounded=0;orthogonalLoop=1;jettySize=auto;html=1;" edge="1" parent="1" source="0brkee-HvgIIuJ729QaQ-4" target="0brkee-HvgIIuJ729QaQ-9">
          <mxGeometry relative="1" as="geometry" />
        </mxCell>
        <mxCell id="0brkee-HvgIIuJ729QaQ-4" value="COS" style="whiteSpace=wrap;html=1;rounded=1;" vertex="1" parent="1">
          <mxGeometry x="90" y="295" width="120" height="60" as="geometry" />
        </mxCell>
        <mxCell id="0brkee-HvgIIuJ729QaQ-7" value="" style="edgeStyle=orthogonalEdgeStyle;rounded=0;orthogonalLoop=1;jettySize=auto;html=1;entryX=0;entryY=0.5;entryDx=0;entryDy=0;" edge="1" parent="1" source="0brkee-HvgIIuJ729QaQ-6" target="0brkee-HvgIIuJ729QaQ-4">
          <mxGeometry relative="1" as="geometry" />
        </mxCell>
        <mxCell id="0brkee-HvgIIuJ729QaQ-8" value="上传mp4" style="edgeLabel;html=1;align=center;verticalAlign=middle;resizable=0;points=[];" vertex="1" connectable="0" parent="0brkee-HvgIIuJ729QaQ-7">
          <mxGeometry x="-0.4211" y="-21" relative="1" as="geometry">
            <mxPoint as="offset" />
          </mxGeometry>
        </mxCell>
        <mxCell id="0brkee-HvgIIuJ729QaQ-6" value="客户" style="shape=umlActor;verticalLabelPosition=bottom;verticalAlign=top;html=1;outlineConnect=0;" vertex="1" parent="1">
          <mxGeometry x="-10" y="295" width="30" height="60" as="geometry" />
        </mxCell>
        <mxCell id="0brkee-HvgIIuJ729QaQ-11" style="edgeStyle=orthogonalEdgeStyle;rounded=0;orthogonalLoop=1;jettySize=auto;html=1;entryX=1;entryY=0.75;entryDx=0;entryDy=0;" edge="1" parent="1" source="0brkee-HvgIIuJ729QaQ-9" target="0brkee-HvgIIuJ729QaQ-4">
          <mxGeometry relative="1" as="geometry">
            <Array as="points">
              <mxPoint x="270" y="465" />
              <mxPoint x="270" y="340" />
            </Array>
          </mxGeometry>
        </mxCell>
        <mxCell id="0brkee-HvgIIuJ729QaQ-12" value="写入ts + m3u8.v1" style="edgeLabel;html=1;align=center;verticalAlign=middle;resizable=0;points=[];" vertex="1" connectable="0" parent="0brkee-HvgIIuJ729QaQ-11">
          <mxGeometry x="0.1491" y="5" relative="1" as="geometry">
            <mxPoint as="offset" />
          </mxGeometry>
        </mxCell>
        <mxCell id="0brkee-HvgIIuJ729QaQ-9" value="云平转码服务" style="shape=parallelogram;perimeter=parallelogramPerimeter;whiteSpace=wrap;html=1;fixedSize=1;rounded=1;" vertex="1" parent="1">
          <mxGeometry x="90" y="435" width="120" height="60" as="geometry" />
        </mxCell>
        <mxCell id="0brkee-HvgIIuJ729QaQ-15" style="edgeStyle=orthogonalEdgeStyle;rounded=0;orthogonalLoop=1;jettySize=auto;html=1;entryX=0;entryY=0.5;entryDx=0;entryDy=0;exitX=0.5;exitY=1;exitDx=0;exitDy=0;" edge="1" parent="1" source="0brkee-HvgIIuJ729QaQ-13" target="0brkee-HvgIIuJ729QaQ-2">
          <mxGeometry relative="1" as="geometry" />
        </mxCell>
        <mxCell id="0brkee-HvgIIuJ729QaQ-13" value="OC" style="rounded=1;whiteSpace=wrap;html=1;" vertex="1" parent="1">
          <mxGeometry x="50" y="80" width="60" height="30" as="geometry" />
        </mxCell>
        <mxCell id="0brkee-HvgIIuJ729QaQ-18" style="edgeStyle=orthogonalEdgeStyle;rounded=0;orthogonalLoop=1;jettySize=auto;html=1;entryX=1;entryY=0.25;entryDx=0;entryDy=0;exitX=0.5;exitY=1;exitDx=0;exitDy=0;" edge="1" parent="1" source="0brkee-HvgIIuJ729QaQ-16" target="0brkee-HvgIIuJ729QaQ-4">
          <mxGeometry relative="1" as="geometry" />
        </mxCell>
        <mxCell id="0brkee-HvgIIuJ729QaQ-19" value="从COS拉mp4" style="edgeLabel;html=1;align=center;verticalAlign=middle;resizable=0;points=[];" vertex="1" connectable="0" parent="0brkee-HvgIIuJ729QaQ-18">
          <mxGeometry x="-0.2308" y="-4" relative="1" as="geometry">
            <mxPoint as="offset" />
          </mxGeometry>
        </mxCell>
        <mxCell id="0brkee-HvgIIuJ729QaQ-16" value="架平实时转码" style="shape=parallelogram;perimeter=parallelogramPerimeter;whiteSpace=wrap;html=1;fixedSize=1;rounded=1;" vertex="1" parent="1">
          <mxGeometry x="320" y="135" width="120" height="60" as="geometry" />
        </mxCell>
      </root>
    </mxGraphModel>
  </diagram>
</mxfile>
